<?xml version="1.0" encoding="UTF-8"?>
<svg version="1.1" xmlns="http://www.w3.org/2000/svg" width="32" height="32">
<path d="M0 0 C1.3303125 0.7115625 1.3303125 0.7115625 2.6875 1.4375 C3.33203125 1.74429687 3.9765625 2.05109375 4.640625 2.3671875 C6.69019775 3.34642781 8.70420656 4.32953687 10.6875 5.4375 C11.42355469 5.84742188 12.15960937 6.25734375 12.91796875 6.6796875 C14.6875 8.4375 14.6875 8.4375 15.078125 11.35546875 C15.03171875 12.43441406 14.9853125 13.51335938 14.9375 14.625 C14.90140625 15.71167969 14.8653125 16.79835938 14.828125 17.91796875 C14.78171875 18.74941406 14.7353125 19.58085937 14.6875 20.4375 C4.35416667 20.4375 -5.97916667 20.4375 -16.3125 20.4375 C-18.2358554 16.5907892 -18.41637126 12.56750109 -17.3125 8.4375 C-14.32337034 5.69272885 -10.96275288 4.14805646 -7.3125 2.4375 C-6.425625 1.87804687 -5.53875 1.31859375 -4.625 0.7421875 C-2.3125 -0.5625 -2.3125 -0.5625 0 0 Z " fill="#A4C93E" transform="translate(17.3125,5.5625)"/>
<path d="M0 0 C4.08799807 1.54264078 6.96758345 3.04807892 9 7 C9.1875 10.25 9.1875 10.25 9 13 C1 13 -7 13 -15 13 C-14.82838834 8.70970851 -14.2722325 5.7813426 -11.4375 2.5625 C-7.84187505 -0.66235308 -4.63743129 -0.93489134 0 0 Z " fill="#5CAE45" transform="translate(19,13)"/>
<path d="M0 0 C2.5 1.75 2.5 1.75 4 4 C4 5.32 4 6.64 4 8 C-1.33333333 8 -6.66666667 8 -12 8 C-11.65447612 5.44312331 -11.24912987 3.42498625 -9.9375 1.1875 C-6.78858766 -0.74247853 -3.5277243 -0.64592135 0 0 Z " fill="#319E4A" transform="translate(20,18)"/>
<path d="M0 0 C3.79929846 0.67079602 5.38689818 2.42199209 7.6328125 5.46484375 C8.2928125 6.12484375 8.9528125 6.78484375 9.6328125 7.46484375 C10.19801253 10.12021747 10.37069448 12.75629088 10.6328125 15.46484375 C9.9728125 15.46484375 9.3128125 15.46484375 8.6328125 15.46484375 C8.16875 13.82515625 8.16875 13.82515625 7.6953125 12.15234375 C7.04943353 9.91076381 6.3705008 7.67790865 5.6328125 5.46484375 C0.87187333 3.25855486 -3.22988015 2.89403182 -8.3671875 3.46484375 C-13.03258277 6.81175775 -14.20730038 10.08718526 -15.3671875 15.46484375 C-16.0271875 15.46484375 -16.6871875 15.46484375 -17.3671875 15.46484375 C-17.6796875 12.77734375 -17.6796875 12.77734375 -17.3671875 9.46484375 C-15.1171875 6.83984375 -15.1171875 6.83984375 -12.3671875 4.46484375 C-11.8309375 3.70171875 -11.2946875 2.93859375 -10.7421875 2.15234375 C-7.26569454 -0.31779599 -4.18422874 -0.13947429 0 0 Z " fill="#89BF40" transform="translate(19.3671875,10.53515625)"/>
<path d="M0 0 C2.5625 0.1875 2.5625 0.1875 4.5625 2.1875 C4.5625 3.1775 4.5625 4.1675 4.5625 5.1875 C3.840625 5.001875 3.11875 4.81625 2.375 4.625 C-0.56576973 4.16754693 -2.57853058 4.45233643 -5.4375 5.1875 C-3.04059278 0.23389175 -3.04059278 0.23389175 0 0 Z " fill="#038D4F" transform="translate(15.4375,20.8125)"/>
<path d="M0 0 C2.3125 1.25 2.3125 1.25 4 3 C4 4.32 4 5.64 4 7 C3.34 7 2.68 7 2 7 C1.34 5.68 0.68 4.36 0 3 C-2.33165034 2.66501699 -2.33165034 2.66501699 -5 3 C-7.31377147 4.89584109 -7.31377147 4.89584109 -9 7 C-8.05513469 1.51978118 -5.68524454 -0.83198701 0 0 Z " fill="#1B964C" transform="translate(18,19)"/>
</svg>
